<?xml version="1.0" encoding="UTF-8" standalone="no"?>
<!-- Created with Inkscape (http://www.inkscape.org/) -->
<svg xmlns:dc="http://purl.org/dc/elements/1.1/" xmlns:cc="http://creativecommons.org/ns#" xmlns:rdf="http://www.w3.org/1999/02/22-rdf-syntax-ns#" xmlns:svg="http://www.w3.org/2000/svg" xmlns="http://www.w3.org/2000/svg" xmlns:sodipodi="http://sodipodi.sourceforge.net/DTD/sodipodi-0.dtd" xmlns:inkscape="http://www.inkscape.org/namespaces/inkscape" width="170.61613" height="171.17863" id="svg3184" version="1.1" inkscape:version="0.48.0 r9654" sodipodi:docname="New document 7">
  <defs id="defs3186"/>
  <sodipodi:namedview id="base" pagecolor="#ffffff" bordercolor="#666666" borderopacity="1.0" inkscape:pageopacity="0.0" inkscape:pageshadow="2" inkscape:zoom="1" inkscape:cx="371.73664" inkscape:cy="-87.442057" inkscape:document-units="px" inkscape:current-layer="layer1" showgrid="false" fit-margin-top="1" fit-margin-left="1" fit-margin-right="1" fit-margin-bottom="1" units="cm" inkscape:window-width="1280" inkscape:window-height="977" inkscape:window-x="-4" inkscape:window-y="-4" inkscape:window-maximized="1"/>
  <metadata id="metadata3189">
    <rdf:RDF>
      <cc:Work rdf:about="">
        <dc:format>image/svg+xml</dc:format>
        <dc:type rdf:resource="http://purl.org/dc/dcmitype/StillImage"/>
        <dc:title/>
      </cc:Work>
    </rdf:RDF>
  </metadata>
  <g inkscape:label="Layer 1" inkscape:groupmode="layer" id="layer1" transform="translate(-3.26336, 4.65571)">
    <path style="fill:#ff0000;fill-opacity:1;fill-rule:nonzero;stroke:none" d="m 100.25888,30.777361 c -9.642389,0 -17.670689,6.8451 -19.531249,15.9375 -3.58259,-5.3278 -9.65958,-8.8438 -16.56251,-8.8438 -11.01988,0 -19.96874,8.9489 -19.96874,19.9688 0,8.4528 5.26533,15.654998 12.68749,18.562498 -0.007,0.2077 -0.0286,0.4162 -0.0312,0.625 -10.17883,0.9075 -18.15624,9.46 -18.15624,19.875 0,11.019801 8.91763,19.937501 19.93749,19.937501 6.63841,0 12.52895,-3.2319 16.15625,-8.2188 -0.10598,0.833 -0.1875,1.6695 -0.1875,2.5313 0,11.0198 8.94888,19.9375 19.96876,19.9375 11.019859,0 19.937499,-8.9177 19.937499,-19.9375 0,-3.5086 -0.90983,-6.7917 -2.5,-9.6563 2.03878,0.7027 4.22255,1.0938 6.5,1.0938 11.01986,0 19.9375,-8.917701 19.9375,-19.937501 0,-11.0199 -8.91764,-19.968698 -19.9375,-19.968698 -0.82914,0 -1.6349,0.089 -2.4375,0.1874 2.59582,-3.368 4.15625,-7.575 4.15625,-12.1562 0,-11.0199 -8.94889,-19.9375 -19.96875,-19.9375 z m -11.687499,32.5 c 9.76045,0 17.687499,7.895698 17.687499,17.656298 0,9.7604 -7.927049,17.6874 -17.687499,17.6874 -9.76047,0 -17.65626,-7.927 -17.65626,-17.6874 0,-9.7606 7.89579,-17.656298 17.65626,-17.656298 z" id="path3030-9-82" inkscape:connector-curvature="0"/>
  </g>
</svg>