<?xml version="1.0" encoding="UTF-8" standalone="no"?>
<!-- Created with Inkscape (http://www.inkscape.org/) -->
<svg xmlns:dc="http://purl.org/dc/elements/1.1/" xmlns:cc="http://creativecommons.org/ns#" xmlns:rdf="http://www.w3.org/1999/02/22-rdf-syntax-ns#" xmlns:svg="http://www.w3.org/2000/svg" xmlns="http://www.w3.org/2000/svg" xmlns:xlink="http://www.w3.org/1999/xlink" xmlns:sodipodi="http://sodipodi.sourceforge.net/DTD/sodipodi-0.dtd" xmlns:inkscape="http://www.inkscape.org/namespaces/inkscape" width="196.4493" height="196.4493" id="svg2" version="1.1" inkscape:version="0.47pre4 r22446" sodipodi:docname="coin_gold.svg">
  <defs id="defs4">
    <linearGradient id="linearGradient3727">
      <stop style="stop-color:#eaed62;stop-opacity:1;" offset="0" id="stop3729"/>
      <stop style="stop-color:#eaed66;stop-opacity:0;" offset="1" id="stop3731"/>
    </linearGradient>
    <linearGradient id="linearGradient3717">
      <stop style="stop-color:#e4e162;stop-opacity:1;" offset="0" id="stop3719"/>
      <stop id="stop3725" offset="0.47046703" style="stop-color:#c2ca52;stop-opacity:1;"/>
      <stop style="stop-color:#e4e252;stop-opacity:0.28671327;" offset="1" id="stop3721"/>
    </linearGradient>
    <linearGradient id="linearGradient3709">
      <stop style="stop-color:#878c2e;stop-opacity:1;" offset="0" id="stop3711"/>
      <stop style="stop-color:#878c1e;stop-opacity:0;" offset="1" id="stop3713"/>
    </linearGradient>
    <linearGradient id="linearGradient3590">
      <stop style="stop-color:#707019;stop-opacity:1;" offset="0" id="stop3592"/>
      <stop style="stop-color:#707017;stop-opacity:0;" offset="1" id="stop3594"/>
    </linearGradient>
    <inkscape:perspective sodipodi:type="inkscape:persp3d" inkscape:vp_x="0 : 526.18109 : 1" inkscape:vp_y="0 : 1000 : 0" inkscape:vp_z="744.09448 : 526.18109 : 1" inkscape:persp3d-origin="372.04724 : 350.78739 : 1" id="perspective10"/>
    <linearGradient inkscape:collect="always" xlink:href="#linearGradient3590" id="linearGradient3596" x1="464.43033" y1="565.46869" x2="220.45309" y2="623.04736" gradientUnits="userSpaceOnUse"/>
    <inkscape:perspective id="perspective3606" inkscape:persp3d-origin="0.5 : 0.33333333 : 1" inkscape:vp_z="1 : 0.5 : 1" inkscape:vp_y="0 : 1000 : 0" inkscape:vp_x="0 : 0.5 : 1" sodipodi:type="inkscape:persp3d"/>
    <linearGradient inkscape:collect="always" xlink:href="#linearGradient3590-4" id="linearGradient3596-6" x1="464.43033" y1="565.46869" x2="220.45309" y2="623.04736" gradientUnits="userSpaceOnUse"/>
    <linearGradient inkscape:collect="always" id="linearGradient3590-4">
      <stop style="stop-color: rgb(112, 112, 111); stop-opacity: 1;" offset="0" id="stop3592-9"/>
      <stop style="stop-color: rgb(112, 112, 111); stop-opacity: 0;" offset="1" id="stop3594-5"/>
    </linearGradient>
    <inkscape:perspective id="perspective3688" inkscape:persp3d-origin="0.5 : 0.33333333 : 1" inkscape:vp_z="1 : 0.5 : 1" inkscape:vp_y="0 : 1000 : 0" inkscape:vp_x="0 : 0.5 : 1" sodipodi:type="inkscape:persp3d"/>
    <linearGradient inkscape:collect="always" xlink:href="#linearGradient3709" id="linearGradient3715" x1="463.77615" y1="557.85339" x2="245.95523" y2="621.8526" gradientUnits="userSpaceOnUse"/>
    <linearGradient inkscape:collect="always" xlink:href="#linearGradient3717" id="linearGradient3723" x1="272.32855" y1="544.13586" x2="300.04413" y2="651.95135" gradientUnits="userSpaceOnUse"/>
    <linearGradient inkscape:collect="always" xlink:href="#linearGradient3727" id="linearGradient3733" x1="269.4722" y1="586.68188" x2="463.89853" y2="586.68188" gradientUnits="userSpaceOnUse"/>
    <inkscape:perspective id="perspective3765" inkscape:persp3d-origin="0.5 : 0.33333333 : 1" inkscape:vp_z="1 : 0.5 : 1" inkscape:vp_y="0 : 1000 : 0" inkscape:vp_x="0 : 0.5 : 1" sodipodi:type="inkscape:persp3d"/>
    <inkscape:perspective id="perspective3809" inkscape:persp3d-origin="0.5 : 0.33333333 : 1" inkscape:vp_z="1 : 0.5 : 1" inkscape:vp_y="0 : 1000 : 0" inkscape:vp_x="0 : 0.5 : 1" sodipodi:type="inkscape:persp3d"/>
    <inkscape:perspective id="perspective3844" inkscape:persp3d-origin="0.5 : 0.33333333 : 1" inkscape:vp_z="1 : 0.5 : 1" inkscape:vp_y="0 : 1000 : 0" inkscape:vp_x="0 : 0.5 : 1" sodipodi:type="inkscape:persp3d"/>
    <inkscape:perspective id="perspective3844-4" inkscape:persp3d-origin="0.5 : 0.33333333 : 1" inkscape:vp_z="1 : 0.5 : 1" inkscape:vp_y="0 : 1000 : 0" inkscape:vp_x="0 : 0.5 : 1" sodipodi:type="inkscape:persp3d"/>
    <inkscape:perspective id="perspective3844-8" inkscape:persp3d-origin="0.5 : 0.33333333 : 1" inkscape:vp_z="1 : 0.5 : 1" inkscape:vp_y="0 : 1000 : 0" inkscape:vp_x="0 : 0.5 : 1" sodipodi:type="inkscape:persp3d"/>
    <inkscape:perspective id="perspective3898" inkscape:persp3d-origin="0.5 : 0.33333333 : 1" inkscape:vp_z="1 : 0.5 : 1" inkscape:vp_y="0 : 1000 : 0" inkscape:vp_x="0 : 0.5 : 1" sodipodi:type="inkscape:persp3d"/>
    <inkscape:perspective id="perspective3898-4" inkscape:persp3d-origin="0.5 : 0.33333333 : 1" inkscape:vp_z="1 : 0.5 : 1" inkscape:vp_y="0 : 1000 : 0" inkscape:vp_x="0 : 0.5 : 1" sodipodi:type="inkscape:persp3d"/>
    <inkscape:perspective id="perspective3977" inkscape:persp3d-origin="0.5 : 0.33333333 : 1" inkscape:vp_z="1 : 0.5 : 1" inkscape:vp_y="0 : 1000 : 0" inkscape:vp_x="0 : 0.5 : 1" sodipodi:type="inkscape:persp3d"/>
    <inkscape:perspective id="perspective4091" inkscape:persp3d-origin="0.5 : 0.33333333 : 1" inkscape:vp_z="1 : 0.5 : 1" inkscape:vp_y="0 : 1000 : 0" inkscape:vp_x="0 : 0.5 : 1" sodipodi:type="inkscape:persp3d"/>
    <linearGradient inkscape:collect="always" xlink:href="#linearGradient3717" id="linearGradient4180" gradientUnits="userSpaceOnUse" x1="272.32855" y1="544.13586" x2="300.04413" y2="651.95135"/>
    <linearGradient inkscape:collect="always" xlink:href="#linearGradient3590" id="linearGradient4182" gradientUnits="userSpaceOnUse" x1="464.43033" y1="565.46869" x2="220.45309" y2="623.04736"/>
    <linearGradient inkscape:collect="always" xlink:href="#linearGradient3727" id="linearGradient4184" gradientUnits="userSpaceOnUse" x1="269.4722" y1="586.68188" x2="463.89853" y2="586.68188"/>
    <linearGradient inkscape:collect="always" xlink:href="#linearGradient3709" id="linearGradient4186" gradientUnits="userSpaceOnUse" x1="463.77615" y1="557.85339" x2="245.95523" y2="621.8526"/>
  </defs>
  <sodipodi:namedview id="base" pagecolor="#ffffff" bordercolor="#666666" borderopacity="1.0" inkscape:pageopacity="0.0" inkscape:pageshadow="2" inkscape:zoom="2.9740004" inkscape:cx="66.398883" inkscape:cy="99.017549" inkscape:document-units="px" inkscape:current-layer="layer1" showgrid="false" inkscape:window-width="1440" inkscape:window-height="850" inkscape:window-x="-4" inkscape:window-y="-3" inkscape:window-maximized="1" showguides="true" inkscape:guide-bbox="true"/>
  <metadata id="metadata7">
    <rdf:RDF>
      <cc:Work rdf:about="">
        <dc:format>image/svg+xml</dc:format>
        <dc:type rdf:resource="http://purl.org/dc/dcmitype/StillImage"/>
        <dc:title/>
      </cc:Work>
    </rdf:RDF>
  </metadata>
  <g inkscape:label="Layer 1" inkscape:groupmode="layer" id="layer1" transform="translate(-268.461, -488.457)">
    <g id="g4070">
      <path d="m 463.66001,586.68188 a 96.974648,96.974648 0 1 1 -193.94929,0 96.974648,96.974648 0 1 1 193.94929,0 z" sodipodi:ry="96.974648" sodipodi:rx="96.974648" sodipodi:cy="586.68188" sodipodi:cx="366.68536" id="path2816" style="color:#000000;fill:url(#linearGradient4180);fill-opacity:1;fill-rule:nonzero;stroke:url(#linearGradient4182);stroke-width:2.5;stroke-linecap:round;stroke-linejoin:round;stroke-miterlimit:4;stroke-opacity:1;stroke-dasharray:none;stroke-dashoffset:0;marker:none;visibility:visible;display:inline;overflow:visible" sodipodi:type="arc"/>
      <path d="m 463.66001,586.68188 a 96.974648,96.974648 0 1 1 -193.94929,0 96.974648,96.974648 0 1 1 193.94929,0 z" sodipodi:ry="96.974648" sodipodi:rx="96.974648" sodipodi:cy="586.68188" sodipodi:cx="366.68536" id="path2816-0" style="color:#000000;fill:url(#linearGradient4184);fill-opacity:1;fill-rule:nonzero;stroke:url(#linearGradient4186);stroke-width:0.47701901;stroke-linecap:round;stroke-linejoin:round;stroke-miterlimit:4;stroke-opacity:1;stroke-dasharray:none;stroke-dashoffset:0;marker:none;visibility:visible;display:inline;overflow:visible" sodipodi:type="arc" transform="matrix(0.838542, 0, 0, 0.838542, 59.2044, 94.7247)"/>
      <path sodipodi:nodetypes="ccccccccccc" id="path3678" d="m 356.19796,551.34537 c 8.14871,-5.28744 16.74659,-9.95728 19.99224,-21.98643 l 20.77624,0 0,79.70082 9.80011,0 0,10.6006 -43.90451,0 0,-10.99322 11.76014,0 0,-57.32177 -18.42422,0 z" style="fill:#eaed71;fill-opacity:1;stroke:#adae61;stroke-width:1px;stroke-linecap:butt;stroke-linejoin:miter;stroke-opacity:1"/>
      <path sodipodi:nodetypes="ccccccccccc" id="path3678-9" d="m 357.42756,550.16752 c 9.27102,-4.4322 16.41891,-11.22345 19.99224,-21.98643 l 20.77624,0 0,79.70082 9.80011,0 0,10.6006 -43.90451,0 0,-10.99322 11.76014,0 0,-57.32177 -18.42422,0 z" style="fill:#eaed71;fill-opacity:1;stroke:#c8ca67;stroke-width:1px;stroke-linecap:butt;stroke-linejoin:miter;stroke-opacity:1"/>
      <path id="path3702" d="m 390.32864,538.07065 0,71.45592" style="fill:#eaed71;fill-opacity:1;stroke:#bcc04b;stroke-width:1px;stroke-linecap:butt;stroke-linejoin:miter;stroke-opacity:1"/>
      <g id="text3735-5" style="font-size:20px;font-style:normal;font-variant:normal;font-weight:bold;font-stretch:normal;fill:#c6c825;fill-opacity:1;stroke:none;font-family:KacstFarsi" transform="translate(1.00874, -3.69872)">
        <path id="path3745-9" style="fill:#c6c825;fill-opacity:1" d="m 332.70862,641.13305 -1.20562,3.49489 -0.69655,-0.22473 c 0.27145,-2.27885 -0.31254,-3.95604 -1.75199,-5.03157 -0.35562,-0.26369 -0.63519,-0.31295 -0.83871,-0.14778 l -0.34372,0.36515 -5.42127,7.31084 c -0.63597,0.85763 -0.87792,1.50088 -0.72584,1.92975 l 0.004,0.0273 c 0.0687,0.18061 0.22078,0.37445 0.4563,0.58151 l 0.58682,0.52025 -0.36646,0.49419 -4.94972,-3.67041 0.36646,-0.49418 0.66826,0.41043 c 0.51736,0.31881 0.98228,0.33125 1.39475,0.0373 0.2543,-0.16805 0.5734,-0.51094 0.95731,-1.02866 l 5.46781,-7.37359 c 0.2598,-0.35037 0.27769,-0.6532 0.0537,-0.9085 l -0.28266,-0.25824 c -1.3283,-0.98497 -2.90726,-1.13459 -4.73688,-0.44886 l -0.57879,0.23948 -0.3938,-0.5838 3.01764,-2.15121 9.31896,6.91037"/>
        <path id="path3747-9" style="fill:#c6c825;fill-opacity:1" d="m 336.85076,650.31407 6.47654,3.04865 1.26854,-2.69487 c 0.42976,-0.91302 0.5603,-1.54955 0.3916,-1.9096 -0.089,-0.19301 -0.24912,-0.3727 -0.48021,-0.53906 l -0.15072,-0.0925 -0.4345,-0.26928 0.26618,-0.56549 5.07167,2.38735 -0.26618,0.56549 -0.47558,-0.15911 c -0.57521,-0.1844 -1.0165,-0.12589 -1.32387,0.17554 -0.23082,0.21517 -0.49318,0.63494 -0.78708,1.25932 l -3.34811,7.11271 c -0.43257,0.9189 -0.56449,1.55838 -0.39576,1.91843 0.0918,0.18712 0.25619,0.36525 0.4932,0.53438 l 0.0177,0.008 0.12422,0.0801 0.42151,0.27397 -0.26203,0.55664 -5.07167,-2.38735 0.26203,-0.55665 0.48856,0.15443 c 0.57519,0.1844 1.01215,0.12745 1.31089,-0.17086 l 0.0177,0.008 c 0.23322,-0.23561 0.49402,-0.65971 0.7824,-1.27232 l 1.71357,-3.64029 -6.47654,-3.04866 -1.71357,3.6403 c -0.43256,0.9189 -0.56448,1.55838 -0.39576,1.91843 0.0918,0.18713 0.2562,0.36525 0.4932,0.53438 l 0.14189,0.0884 0.42151,0.27396 -0.26203,0.55665 -5.07167,-2.38735 0.26203,-0.55665 0.48856,0.15443 c 0.5752,0.18441 1.01216,0.12745 1.31089,-0.17086 l 0.0177,0.008 c 0.23323,-0.2356 0.49402,-0.6597 0.7824,-1.27231 l 3.34811,-7.11271 c 0.42977,-0.91301 0.56031,-1.54954 0.3916,-1.9096 -0.089,-0.193 -0.24911,-0.37269 -0.48021,-0.53905 -0.0236,-0.0111 -0.0501,-0.0236 -0.0795,-0.0374 -0.0208,-0.017 -0.0445,-0.0353 -0.0712,-0.0551 l -0.4345,-0.26929 0.26618,-0.56548 5.07167,2.38735 -0.26618,0.56548 -0.47558,-0.1591 c -0.5752,-0.1844 -1.01649,-0.12589 -1.32387,0.17554 -0.23082,0.21517 -0.49317,0.63494 -0.78708,1.25932 l -1.26854,2.69488"/>
        <path id="path3749-0" style="fill:#c6c825;fill-opacity:1" d="m 358.10472,651.42144 2.3583,11.28614 c 0.0689,0.32895 0.12949,0.61023 0.18178,0.84383 0.0598,0.2283 0.11394,0.41268 0.16245,0.55315 0.17513,0.47935 0.48374,0.81653 0.92584,1.01152 l 0.0192,0.003 c 0.0673,0.0314 0.14414,0.0644 0.23067,0.0992 0.0929,0.0358 0.19812,0.077 0.31562,0.12368 l -0.10434,0.60633 -5.53389,-0.95236 0.10435,-0.60632 0.58604,-0.008 c 0.29755,-0.002 0.50107,-0.0327 0.61058,-0.0931 0.29065,-0.11513 0.46835,-0.32237 0.53309,-0.62172 0.0276,-0.1604 0.01,-0.42112 -0.0537,-0.78215 l -0.0219,-0.10287 -0.54441,-2.70971 -5.09117,-0.87617 -0.91707,1.5862 c -0.35844,0.58571 -0.56748,1.05181 -0.6271,1.39827 -0.0663,0.38497 0.0455,0.71468 0.33514,0.98914 0.14605,0.11102 0.39586,0.23328 0.74943,0.3668 l 0.45668,0.16777 -0.10434,0.60632 -5.28366,-0.90929 0.10434,-0.60632 0.22964,-0.01 c 0.63582,-0.009 1.1446,-0.18287 1.52635,-0.52014 l 0.0952,-0.0926 c 0.20436,-0.18944 0.47427,-0.52945 0.80973,-1.02002 0.34187,-0.48948 0.7504,-1.13593 1.22558,-1.93938 l 4.8833,-8.1076 1.83822,0.31634 m -4.87735,6.97898 4.43673,0.76354 -1.23345,-6.30642 -3.20328,5.54288"/>
        <path id="path3751-7" style="fill:#c6c825;fill-opacity:1" d="m 379.26165,660.49542 -1.19299,4.40879 -10.31558,0.97257 -0.0577,-0.61251 0.49915,-0.11573 c 0.58898,-0.134 0.93613,-0.40541 1.04145,-0.81424 l 0.0195,-0.002 c 0.0808,-0.32151 0.0895,-0.81931 0.026,-1.49341 l -0.73791,-7.82662 c -0.0947,-1.00464 -0.30632,-1.619 -0.63479,-1.84308 -0.17488,-0.12082 -0.40411,-0.19403 -0.68771,-0.21962 -0.0259,0.002 -0.0551,0.005 -0.0875,0.008 -0.0265,-0.004 -0.0563,-0.008 -0.0893,-0.0112 l -0.51107,-0.0107 -0.0587,-0.62224 5.71684,-0.539 0.0587,0.62224 -0.62646,0.11792 c -0.59143,0.10809 -0.94677,0.39662 -1.06603,0.8656 -0.078,0.28202 -0.085,0.76332 -0.0208,1.44388 l 0.77733,8.24469 c 0.0562,0.59631 0.17158,0.9876 0.34609,1.17387 0.29042,0.30612 0.79861,0.42496 1.52457,0.35651 0.42778,-0.0403 0.86627,-0.14052 1.31548,-0.30058 0.803,-0.29151 1.54444,-0.7505 2.22432,-1.37698 l 0.0547,-0.0444 c 0.2885,-0.26915 0.52577,-0.52694 0.7118,-0.77335 0.15849,-0.1915 0.3348,-0.437 0.52891,-0.73649 0.19996,-0.30658 0.42096,-0.66746 0.66302,-1.08264 l 0.57893,0.21025"/>
        <path id="path3753-6" style="fill:#c6c825;fill-opacity:1" d="m 390.87076,646.94762 2.47031,2.96292 -0.51508,0.45513 c -0.269,-0.16248 -0.5255,-0.30861 -0.7695,-0.43838 -0.24403,-0.12974 -0.47968,-0.24515 -0.70698,-0.34624 -1.32882,-0.60463 -2.7001,-0.74055 -4.11384,-0.40774 l -1.14004,0.31821 c -1.05322,0.36075 -1.6355,0.78041 -1.74686,1.25896 -0.0638,0.25584 -0.0197,0.60548 0.13217,1.04892 l 1.10436,3.22432 1.43201,-0.49047 c 0.85612,-0.29322 1.37276,-0.68351 1.54993,-1.17086 l -0.006,-0.0185 c 0.13261,-0.39638 0.10652,-1.06529 -0.0783,-2.00673 l 0.64671,-0.2215 1.93975,5.66334 -0.64671,0.22151 c -0.53262,-1.17327 -1.18725,-1.78862 -1.9639,-1.84605 l -0.0185,0.006 c -0.344,-0.0198 -0.73772,0.0462 -1.18117,0.19811 l -1.39505,0.47781 1.367,3.99114 c 0.18563,0.54201 0.39544,0.89337 0.62942,1.05409 0.42204,0.24771 1.11347,0.20701 2.07431,-0.12208 1.64448,-0.56325 2.87398,-1.39383 3.68848,-2.49173 0.0917,-0.11398 0.17822,-0.23308 0.25957,-0.35729 0.0813,-0.12419 0.16256,-0.25868 0.24373,-0.40348 0.36707,-0.67626 0.71555,-1.48722 1.04542,-2.4329 l 0.68305,0.0654 -0.34799,4.61982 -11.03106,3.77824 -0.19935,-0.58204 0.45826,-0.22922 c 0.54133,-0.26799 0.8154,-0.61304 0.82222,-1.03516 l 0.0185,-0.006 c 0.003,-0.3315 -0.10453,-0.81753 -0.32392,-1.45808 l -2.54731,-7.43719 c -0.32698,-0.95466 -0.67635,-1.50252 -1.0481,-1.64359 -0.19828,-0.0766 -0.43828,-0.0942 -0.72,-0.0528 -0.0246,0.008 -0.0523,0.018 -0.0831,0.0285 -0.0267,0.002 -0.0566,0.006 -0.0895,0.01 l -0.4994,0.10912 -0.20252,-0.59128 10.80933,-3.70229"/>
        <path id="path3755-3" style="fill:#c6c825;fill-opacity:1" d="m 407.0532,646.31865 5.21279,2.4322 0.41543,0.15635 c 0.65565,0.20284 1.35255,0.17594 2.09069,-0.0807 l 0.30512,0.53424 -2.90017,1.65638 -7.0828,-3.3435 -2.5016,1.42874 1.75324,3.06977 c 0.52306,0.91585 0.99737,1.39845 1.42292,1.4478 0.20511,0.0178 0.46999,-0.0435 0.79464,-0.18394 l 0.65295,-0.29419 0.30512,0.53424 -5.05409,2.88655 -0.30513,-0.53424 0.40706,-0.31121 c 0.48136,-0.36489 0.68575,-0.75528 0.61317,-1.17117 l 0.017,-0.01 c -0.0589,-0.32625 -0.25621,-0.78335 -0.59201,-1.3713 l -3.89878,-6.82642 c -0.50046,-0.87625 -0.94651,-1.34875 -1.33814,-1.41749 -0.20914,-0.038 -0.44817,-0.0102 -0.7171,0.0834 -0.0226,0.0129 -0.0481,0.0275 -0.0763,0.0436 -0.0258,0.007 -0.0545,0.0162 -0.086,0.0266 l -0.47002,0.20096 -0.30997,-0.54272 7.07234,-4.03924 c 1.75819,-1.00414 3.24083,-1.19115 4.44793,-0.56103 0.5224,0.27146 0.94666,0.69267 1.27277,1.26364 0.53275,0.93282 0.60642,1.8954 0.22102,2.88774 l -0.12362,0.29552 c -0.0727,0.1615 -0.15471,0.3133 -0.24599,0.45539 -0.0945,0.13646 -0.19952,0.26766 -0.31502,0.39359 -0.11551,0.12596 -0.25363,0.26482 -0.41435,0.41659 -0.16396,0.14613 -0.35498,0.30396 -0.57304,0.47348 m -4.88675,2.03748 2.91713,-1.66606 c 0.93845,-0.53597 1.52767,-1.11241 1.76764,-1.72931 0.32561,-0.80824 0.26482,-1.61698 -0.18236,-2.42623 -0.89438,-1.56596 -2.45245,-1.71449 -4.67422,-0.44558 -0.98368,0.56183 -1.63707,1.05871 -1.96017,1.49064 -0.21406,0.29471 -0.22181,0.62902 -0.0232,1.00293 l 2.15522,3.77361"/>
      </g>
      <g transform="translate(0.336247, -3.02623)" id="text3735" style="font-size:20px;font-style:normal;font-variant:normal;font-weight:bold;font-stretch:normal;fill:#d8d957;fill-opacity:1;stroke:none;font-family:KacstFarsi">
        <path id="path3745" style="fill:#d8d957;fill-opacity:1" d="m 332.70862,641.13305 -1.20562,3.49489 -0.69655,-0.22473 c 0.27145,-2.27885 -0.31254,-3.95604 -1.75199,-5.03157 -0.35562,-0.26369 -0.63519,-0.31295 -0.83871,-0.14778 l -0.34372,0.36515 -5.42127,7.31084 c -0.63597,0.85763 -0.87792,1.50088 -0.72584,1.92975 l 0.004,0.0273 c 0.0687,0.18061 0.22078,0.37445 0.4563,0.58151 l 0.58682,0.52025 -0.36646,0.49419 -4.94972,-3.67041 0.36646,-0.49418 0.66826,0.41043 c 0.51736,0.31881 0.98228,0.33125 1.39475,0.0373 0.2543,-0.16805 0.5734,-0.51094 0.95731,-1.02866 l 5.46781,-7.37359 c 0.2598,-0.35037 0.27769,-0.6532 0.0537,-0.9085 l -0.28266,-0.25824 c -1.3283,-0.98497 -2.90726,-1.13459 -4.73688,-0.44886 l -0.57879,0.23948 -0.3938,-0.5838 3.01764,-2.15121 9.31896,6.91037"/>
        <path id="path3747" style="fill:#d8d957;fill-opacity:1" d="m 336.85076,650.31407 6.47654,3.04865 1.26854,-2.69487 c 0.42976,-0.91302 0.5603,-1.54955 0.3916,-1.9096 -0.089,-0.19301 -0.24912,-0.3727 -0.48021,-0.53906 l -0.15072,-0.0925 -0.4345,-0.26928 0.26618,-0.56549 5.07167,2.38735 -0.26618,0.56549 -0.47558,-0.15911 c -0.57521,-0.1844 -1.0165,-0.12589 -1.32387,0.17554 -0.23082,0.21517 -0.49318,0.63494 -0.78708,1.25932 l -3.34811,7.11271 c -0.43257,0.9189 -0.56449,1.55838 -0.39576,1.91843 0.0918,0.18712 0.25619,0.36525 0.4932,0.53438 l 0.0177,0.008 0.12422,0.0801 0.42151,0.27397 -0.26203,0.55664 -5.07167,-2.38735 0.26203,-0.55665 0.48856,0.15443 c 0.57519,0.1844 1.01215,0.12745 1.31089,-0.17086 l 0.0177,0.008 c 0.23322,-0.23561 0.49402,-0.65971 0.7824,-1.27232 l 1.71357,-3.64029 -6.47654,-3.04866 -1.71357,3.6403 c -0.43256,0.9189 -0.56448,1.55838 -0.39576,1.91843 0.0918,0.18713 0.2562,0.36525 0.4932,0.53438 l 0.14189,0.0884 0.42151,0.27396 -0.26203,0.55665 -5.07167,-2.38735 0.26203,-0.55665 0.48856,0.15443 c 0.5752,0.18441 1.01216,0.12745 1.31089,-0.17086 l 0.0177,0.008 c 0.23323,-0.2356 0.49402,-0.6597 0.7824,-1.27231 l 3.34811,-7.11271 c 0.42977,-0.91301 0.56031,-1.54954 0.3916,-1.9096 -0.089,-0.193 -0.24911,-0.37269 -0.48021,-0.53905 -0.0236,-0.0111 -0.0501,-0.0236 -0.0795,-0.0374 -0.0208,-0.017 -0.0445,-0.0353 -0.0712,-0.0551 l -0.4345,-0.26929 0.26618,-0.56548 5.07167,2.38735 -0.26618,0.56548 -0.47558,-0.1591 c -0.5752,-0.1844 -1.01649,-0.12589 -1.32387,0.17554 -0.23082,0.21517 -0.49317,0.63494 -0.78708,1.25932 l -1.26854,2.69488"/>
        <path id="path3749" style="fill:#d8d957;fill-opacity:1" d="m 358.10472,651.42144 2.3583,11.28614 c 0.0689,0.32895 0.12949,0.61023 0.18178,0.84383 0.0598,0.2283 0.11394,0.41268 0.16245,0.55315 0.17513,0.47935 0.48374,0.81653 0.92584,1.01152 l 0.0192,0.003 c 0.0673,0.0314 0.14414,0.0644 0.23067,0.0992 0.0929,0.0358 0.19812,0.077 0.31562,0.12368 l -0.10434,0.60633 -5.53389,-0.95236 0.10435,-0.60632 0.58604,-0.008 c 0.29755,-0.002 0.50107,-0.0327 0.61058,-0.0931 0.29065,-0.11513 0.46835,-0.32237 0.53309,-0.62172 0.0276,-0.1604 0.01,-0.42112 -0.0537,-0.78215 l -0.0219,-0.10287 -0.54441,-2.70971 -5.09117,-0.87617 -0.91707,1.5862 c -0.35844,0.58571 -0.56748,1.05181 -0.6271,1.39827 -0.0663,0.38497 0.0455,0.71468 0.33514,0.98914 0.14605,0.11102 0.39586,0.23328 0.74943,0.3668 l 0.45668,0.16777 -0.10434,0.60632 -5.28366,-0.90929 0.10434,-0.60632 0.22964,-0.01 c 0.63582,-0.009 1.1446,-0.18287 1.52635,-0.52014 l 0.0952,-0.0926 c 0.20436,-0.18944 0.47427,-0.52945 0.80973,-1.02002 0.34187,-0.48948 0.7504,-1.13593 1.22558,-1.93938 l 4.8833,-8.1076 1.83822,0.31634 m -4.87735,6.97898 4.43673,0.76354 -1.23345,-6.30642 -3.20328,5.54288"/>
        <path id="path3751" style="fill:#d8d957;fill-opacity:1" d="m 379.26165,660.49542 -1.19299,4.40879 -10.31558,0.97257 -0.0577,-0.61251 0.49915,-0.11573 c 0.58898,-0.134 0.93613,-0.40541 1.04145,-0.81424 l 0.0195,-0.002 c 0.0808,-0.32151 0.0895,-0.81931 0.026,-1.49341 l -0.73791,-7.82662 c -0.0947,-1.00464 -0.30632,-1.619 -0.63479,-1.84308 -0.17488,-0.12082 -0.40411,-0.19403 -0.68771,-0.21962 -0.0259,0.002 -0.0551,0.005 -0.0875,0.008 -0.0265,-0.004 -0.0563,-0.008 -0.0893,-0.0112 l -0.51107,-0.0107 -0.0587,-0.62224 5.71684,-0.539 0.0587,0.62224 -0.62646,0.11792 c -0.59143,0.10809 -0.94677,0.39662 -1.06603,0.8656 -0.078,0.28202 -0.085,0.76332 -0.0208,1.44388 l 0.77733,8.24469 c 0.0562,0.59631 0.17158,0.9876 0.34609,1.17387 0.29042,0.30612 0.79861,0.42496 1.52457,0.35651 0.42778,-0.0403 0.86627,-0.14052 1.31548,-0.30058 0.803,-0.29151 1.54444,-0.7505 2.22432,-1.37698 l 0.0547,-0.0444 c 0.2885,-0.26915 0.52577,-0.52694 0.7118,-0.77335 0.15849,-0.1915 0.3348,-0.437 0.52891,-0.73649 0.19996,-0.30658 0.42096,-0.66746 0.66302,-1.08264 l 0.57893,0.21025"/>
        <path id="path3753" style="fill:#d8d957;fill-opacity:1" d="m 390.87076,646.94762 2.47031,2.96292 -0.51508,0.45513 c -0.269,-0.16248 -0.5255,-0.30861 -0.7695,-0.43838 -0.24403,-0.12974 -0.47968,-0.24515 -0.70698,-0.34624 -1.32882,-0.60463 -2.7001,-0.74055 -4.11384,-0.40774 l -1.14004,0.31821 c -1.05322,0.36075 -1.6355,0.78041 -1.74686,1.25896 -0.0638,0.25584 -0.0197,0.60548 0.13217,1.04892 l 1.10436,3.22432 1.43201,-0.49047 c 0.85612,-0.29322 1.37276,-0.68351 1.54993,-1.17086 l -0.006,-0.0185 c 0.13261,-0.39638 0.10652,-1.06529 -0.0783,-2.00673 l 0.64671,-0.2215 1.93975,5.66334 -0.64671,0.22151 c -0.53262,-1.17327 -1.18725,-1.78862 -1.9639,-1.84605 l -0.0185,0.006 c -0.344,-0.0198 -0.73772,0.0462 -1.18117,0.19811 l -1.39505,0.47781 1.367,3.99114 c 0.18563,0.54201 0.39544,0.89337 0.62942,1.05409 0.42204,0.24771 1.11347,0.20701 2.07431,-0.12208 1.64448,-0.56325 2.87398,-1.39383 3.68848,-2.49173 0.0917,-0.11398 0.17822,-0.23308 0.25957,-0.35729 0.0813,-0.12419 0.16256,-0.25868 0.24373,-0.40348 0.36707,-0.67626 0.71555,-1.48722 1.04542,-2.4329 l 0.68305,0.0654 -0.34799,4.61982 -11.03106,3.77824 -0.19935,-0.58204 0.45826,-0.22922 c 0.54133,-0.26799 0.8154,-0.61304 0.82222,-1.03516 l 0.0185,-0.006 c 0.003,-0.3315 -0.10453,-0.81753 -0.32392,-1.45808 l -2.54731,-7.43719 c -0.32698,-0.95466 -0.67635,-1.50252 -1.0481,-1.64359 -0.19828,-0.0766 -0.43828,-0.0942 -0.72,-0.0528 -0.0246,0.008 -0.0523,0.018 -0.0831,0.0285 -0.0267,0.002 -0.0566,0.006 -0.0895,0.01 l -0.4994,0.10912 -0.20252,-0.59128 10.80933,-3.70229"/>
        <path id="path3755" style="fill:#d8d957;fill-opacity:1" d="m 407.0532,646.31865 5.21279,2.4322 0.41543,0.15635 c 0.65565,0.20284 1.35255,0.17594 2.09069,-0.0807 l 0.30512,0.53424 -2.90017,1.65638 -7.0828,-3.3435 -2.5016,1.42874 1.75324,3.06977 c 0.52306,0.91585 0.99737,1.39845 1.42292,1.4478 0.20511,0.0178 0.46999,-0.0435 0.79464,-0.18394 l 0.65295,-0.29419 0.30512,0.53424 -5.05409,2.88655 -0.30513,-0.53424 0.40706,-0.31121 c 0.48136,-0.36489 0.68575,-0.75528 0.61317,-1.17117 l 0.017,-0.01 c -0.0589,-0.32625 -0.25621,-0.78335 -0.59201,-1.3713 l -3.89878,-6.82642 c -0.50046,-0.87625 -0.94651,-1.34875 -1.33814,-1.41749 -0.20914,-0.038 -0.44817,-0.0102 -0.7171,0.0834 -0.0226,0.0129 -0.0481,0.0275 -0.0763,0.0436 -0.0258,0.007 -0.0545,0.0162 -0.086,0.0266 l -0.47002,0.20096 -0.30997,-0.54272 7.07234,-4.03924 c 1.75819,-1.00414 3.24083,-1.19115 4.44793,-0.56103 0.5224,0.27146 0.94666,0.69267 1.27277,1.26364 0.53275,0.93282 0.60642,1.8954 0.22102,2.88774 l -0.12362,0.29552 c -0.0727,0.1615 -0.15471,0.3133 -0.24599,0.45539 -0.0945,0.13646 -0.19952,0.26766 -0.31502,0.39359 -0.11551,0.12596 -0.25363,0.26482 -0.41435,0.41659 -0.16396,0.14613 -0.35498,0.30396 -0.57304,0.47348 m -4.88675,2.03748 2.91713,-1.66606 c 0.93845,-0.53597 1.52767,-1.11241 1.76764,-1.72931 0.32561,-0.80824 0.26482,-1.61698 -0.18236,-2.42623 -0.89438,-1.56596 -2.45245,-1.71449 -4.67422,-0.44558 -0.98368,0.56183 -1.63707,1.05871 -1.96017,1.49064 -0.21406,0.29471 -0.22181,0.62902 -0.0232,1.00293 l 2.15522,3.77361"/>
      </g>
      <path sodipodi:nodetypes="ccc" id="path3797" d="m 319.58199,552.1038 c 7.92982,-1.38256 13.78194,-6.24739 14.30325,-20.04682 -7.62646,1.72802 -13.16926,7.06711 -14.30325,20.04682 z" style="fill:none;stroke:#bcbd46;stroke-width:0.69999987;stroke-linecap:round;stroke-linejoin:round;stroke-miterlimit:4;stroke-opacity:1;stroke-dasharray:none"/>
      <path id="path3799" d="m 321.1464,550.20747 8.26907,-11.64882" style="fill:none;stroke:#bcbd46;stroke-width:0.69999987;stroke-linecap:round;stroke-linejoin:round;stroke-miterlimit:4;stroke-opacity:1;stroke-dasharray:none"/>
      <path sodipodi:nodetypes="ccc" id="path3797-2" d="m 314.80848,561.43985 c 7.4252,4.66644 15.0387,5.27147 23.13536,-4.54402 -7.36224,-4.19376 -14.97924,-4.22676 -23.13536,4.54402 z" style="fill:none;stroke:#bcbd46;stroke-width:0.69999987;stroke-linecap:round;stroke-linejoin:round;stroke-miterlimit:4;stroke-opacity:1;stroke-dasharray:none"/>
      <path id="path3799-7" d="m 317.17446,561.16162 13.40802,-2.67076" style="fill:none;stroke:#bcbd46;stroke-width:0.69999987;stroke-linecap:round;stroke-linejoin:round;stroke-miterlimit:4;stroke-opacity:1;stroke-dasharray:none"/>
      <path sodipodi:nodetypes="cc" id="path3826" d="m 319.37988,552.36935 c -19.09148,28.7969 -13.46112,48.13732 0.26741,72.72745" style="fill:none;stroke:#bcbd46;stroke-width:1.30000043;stroke-linecap:round;stroke-linejoin:round;stroke-miterlimit:4;stroke-opacity:1;stroke-dasharray:none"/>
      <path sodipodi:nodetypes="ccc" id="path3797-2-2" d="m 308.88185,577.49569 c 7.4252,4.66643 15.03869,5.27147 23.13535,-4.54402 -7.36224,-4.19377 -14.97924,-4.22676 -23.13535,4.54402 z" style="fill:none;stroke:#bcbd46;stroke-width:0.69999987;stroke-linecap:round;stroke-linejoin:round;stroke-miterlimit:4;stroke-opacity:1;stroke-dasharray:none"/>
      <path id="path3799-7-4" d="m 311.24782,577.21747 13.40802,-2.67077" style="fill:none;stroke:#bcbd46;stroke-width:0.69999987;stroke-linecap:round;stroke-linejoin:round;stroke-miterlimit:4;stroke-opacity:1;stroke-dasharray:none"/>
      <path sodipodi:nodetypes="ccc" id="path3797-2-8" d="m 307.52075,591.95337 c 6.9257,4.20112 14.02702,4.74581 21.579,-4.09091 -6.86696,-3.77558 -13.97157,-3.80529 -21.579,4.09091 z" style="fill:none;stroke:#bcbd46;stroke-width:0.69999987;stroke-linecap:round;stroke-linejoin:round;stroke-miterlimit:4;stroke-opacity:1;stroke-dasharray:none"/>
      <path id="path3799-7-6" d="m 309.72756,591.70288 12.50605,-2.40444" style="fill:none;stroke:#bcbd46;stroke-width:0.69999987;stroke-linecap:round;stroke-linejoin:round;stroke-miterlimit:4;stroke-opacity:1;stroke-dasharray:none"/>
      <path sodipodi:nodetypes="ccc" id="path3797-2-22" d="m 311.47466,566.84154 c 3.06179,-9.012 2.43463,-17.55561 -7.65745,-24.8975 -2.64554,8.86337 -1.50235,17.31549 7.65745,24.8975 z" style="fill:none;stroke:#bcbd46;stroke-width:0.69999987;stroke-linecap:round;stroke-linejoin:round;stroke-miterlimit:4;stroke-opacity:1;stroke-dasharray:none"/>
      <path id="path3799-7-3" d="m 310.8596,564.26427 -4.47146,-14.42305" style="fill:none;stroke:#bcbd46;stroke-width:0.69999987;stroke-linecap:round;stroke-linejoin:round;stroke-miterlimit:4;stroke-opacity:1;stroke-dasharray:none"/>
      <path sodipodi:nodetypes="ccc" id="path3797-2-22-8" d="m 306.98057,585.26543 c 1.2589,-9.87877 -1.0689,-18.2998 -12.59922,-22.98072 -0.87325,9.61799 1.9511,17.809 12.59922,22.98072 z" style="fill:none;stroke:#bcbd46;stroke-width:0.69999987;stroke-linecap:round;stroke-linejoin:round;stroke-miterlimit:4;stroke-opacity:1;stroke-dasharray:none"/>
      <path id="path3799-7-3-3" d="m 305.85353,582.83906 -7.33412,-13.30317" style="fill:none;stroke:#bcbd46;stroke-width:0.69999987;stroke-linecap:round;stroke-linejoin:round;stroke-miterlimit:4;stroke-opacity:1;stroke-dasharray:none"/>
      <path sodipodi:nodetypes="ccc" id="path3797-2-22-2" d="m 307.80917,598.15044 c -2.25731,-8.49572 -7.06317,-14.2669 -18.408,-13.04761 2.49632,8.11904 7.64553,13.49031 18.408,13.04761 z" style="fill:none;stroke:#bcbd46;stroke-width:0.69999987;stroke-linecap:round;stroke-linejoin:round;stroke-miterlimit:4;stroke-opacity:1;stroke-dasharray:none"/>
      <path id="path3799-7-3-4" d="m 306.0378,596.68494 -10.69053,-7.53547" style="fill:none;stroke:#bcbd46;stroke-width:0.69999987;stroke-linecap:round;stroke-linejoin:round;stroke-miterlimit:4;stroke-opacity:1;stroke-dasharray:none"/>
      <path sodipodi:nodetypes="ccc" id="path3797-27" d="m 320.11681,551.82191 c 7.92982,-1.38256 13.78194,-6.24739 14.30325,-20.04682 -7.62646,1.72802 -13.16926,7.06711 -14.30325,20.04682 z" style="fill:none;stroke:#bcbd46;stroke-width:0.69999987;stroke-linecap:round;stroke-linejoin:round;stroke-miterlimit:4;stroke-opacity:1;stroke-dasharray:none"/>
      <path id="path3799-3" d="m 321.68123,549.92558 8.26906,-11.64882" style="fill:none;stroke:#bcbd46;stroke-width:0.69999987;stroke-linecap:round;stroke-linejoin:round;stroke-miterlimit:4;stroke-opacity:1;stroke-dasharray:none"/>
      <path sodipodi:nodetypes="ccc" id="path3797-2-6" d="m 315.34331,561.15796 c 7.4252,4.66644 15.03869,5.27147 23.13535,-4.54403 -7.36224,-4.19375 -14.97924,-4.22675 -23.13535,4.54403 z" style="fill:none;stroke:#bcbd46;stroke-width:0.69999987;stroke-linecap:round;stroke-linejoin:round;stroke-miterlimit:4;stroke-opacity:1;stroke-dasharray:none"/>
      <path id="path3799-7-47" d="m 317.70928,560.87973 13.40802,-2.67076" style="fill:none;stroke:#bcbd46;stroke-width:0.69999987;stroke-linecap:round;stroke-linejoin:round;stroke-miterlimit:4;stroke-opacity:1;stroke-dasharray:none"/>
      <path sodipodi:nodetypes="cc" id="path3826-9" d="m 319.9147,552.08746 c -19.09148,28.7969 -13.46112,48.13732 0.26741,72.72745" style="fill:none;stroke:#bcbd46;stroke-width:1.30000043;stroke-linecap:round;stroke-linejoin:round;stroke-miterlimit:4;stroke-opacity:1;stroke-dasharray:none"/>
      <path sodipodi:nodetypes="ccc" id="path3797-2-2-7" d="m 309.41667,577.21379 c 7.4252,4.66644 15.03869,5.27148 23.13535,-4.54401 -7.36224,-4.19377 -14.97924,-4.22676 -23.13535,4.54401 z" style="fill:none;stroke:#bcbd46;stroke-width:0.69999987;stroke-linecap:round;stroke-linejoin:round;stroke-miterlimit:4;stroke-opacity:1;stroke-dasharray:none"/>
      <path id="path3799-7-4-2" d="m 311.78264,576.93557 13.40803,-2.67076" style="fill:none;stroke:#bcbd46;stroke-width:0.69999987;stroke-linecap:round;stroke-linejoin:round;stroke-miterlimit:4;stroke-opacity:1;stroke-dasharray:none"/>
      <path sodipodi:nodetypes="ccc" id="path3797-2-8-2" d="m 308.05557,591.67148 c 6.9257,4.20112 14.02702,4.74581 21.579,-4.09091 -6.86696,-3.77558 -13.97157,-3.80529 -21.579,4.09091 z" style="fill:none;stroke:#bcbd46;stroke-width:0.69999987;stroke-linecap:round;stroke-linejoin:round;stroke-miterlimit:4;stroke-opacity:1;stroke-dasharray:none"/>
      <path id="path3799-7-6-1" d="m 310.26238,591.42099 12.50605,-2.40444" style="fill:none;stroke:#bcbd46;stroke-width:0.69999987;stroke-linecap:round;stroke-linejoin:round;stroke-miterlimit:4;stroke-opacity:1;stroke-dasharray:none"/>
      <path sodipodi:nodetypes="ccc" id="path3797-2-22-6" d="m 312.00948,566.55965 c 3.06179,-9.012 2.43463,-17.55561 -7.65745,-24.8975 -2.64554,8.86336 -1.50234,17.31549 7.65745,24.8975 z" style="fill:none;stroke:#bcbd46;stroke-width:0.69999987;stroke-linecap:round;stroke-linejoin:round;stroke-miterlimit:4;stroke-opacity:1;stroke-dasharray:none"/>
      <path id="path3799-7-3-30" d="m 311.39442,563.98238 -4.47145,-14.42305" style="fill:none;stroke:#bcbd46;stroke-width:0.69999987;stroke-linecap:round;stroke-linejoin:round;stroke-miterlimit:4;stroke-opacity:1;stroke-dasharray:none"/>
      <path sodipodi:nodetypes="ccc" id="path3797-2-22-8-2" d="m 307.5154,584.98354 c 1.25889,-9.87877 -1.06891,-18.2998 -12.59923,-22.98072 -0.87325,9.61799 1.9511,17.809 12.59923,22.98072 z" style="fill:none;stroke:#bcbd46;stroke-width:0.69999987;stroke-linecap:round;stroke-linejoin:round;stroke-miterlimit:4;stroke-opacity:1;stroke-dasharray:none"/>
      <path id="path3799-7-3-3-1" d="M 306.38835,582.55717 299.05423,569.254" style="fill:none;stroke:#bcbd46;stroke-width:0.69999987;stroke-linecap:round;stroke-linejoin:round;stroke-miterlimit:4;stroke-opacity:1;stroke-dasharray:none"/>
      <path sodipodi:nodetypes="ccc" id="path3797-2-22-2-5" d="m 308.34399,597.86855 c -2.25731,-8.49572 -7.06317,-14.2669 -18.408,-13.04761 2.49632,8.11904 7.64553,13.49031 18.408,13.04761 z" style="fill:none;stroke:#bcbd46;stroke-width:0.69999987;stroke-linecap:round;stroke-linejoin:round;stroke-miterlimit:4;stroke-opacity:1;stroke-dasharray:none"/>
      <path id="path3799-7-3-4-6" d="m 306.57262,596.40305 -10.69053,-7.53547" style="fill:none;stroke:#bcbd46;stroke-width:0.69999987;stroke-linecap:round;stroke-linejoin:round;stroke-miterlimit:4;stroke-opacity:1;stroke-dasharray:none"/>
      <g id="text4065-4" style="font-size:20px;font-style:normal;font-variant:normal;font-weight:bold;font-stretch:normal;fill:#babb42;fill-opacity:1;stroke:none;font-family:KacstFarsi" transform="translate(-0.672495, -0.336244)">
        <path id="path4075-6" style="fill:#babb42;fill-opacity:1" d="m 426.68418,556.49372 -3.71039,1.07566 -4.955,-8.35847 1.20126,-0.71213 c 1.38167,0.74759 2.53273,1.29131 3.4532,1.63116 0.67421,0.24362 1.38493,0.4467 2.13216,0.60921 l 0.40483,0.0892 c 2.33666,0.46905 4.15069,0.32458 5.44209,-0.4334 0.92964,-0.55111 1.37914,-1.30574 1.34851,-2.2639 5.5e-4,-0.31821 -0.0836,-0.65808 -0.25252,-1.01962 l -0.20045,-0.41474 c -0.4814,-0.81205 -1.11563,-1.33293 -1.90268,-1.56265 -0.42922,-0.12397 -0.7995,-0.0975 -1.11082,0.0795 l -0.2741,0.2079 c -0.0135,0.0156 -0.027,0.0311 -0.0404,0.0467 -0.008,0.0122 -0.0158,0.0245 -0.0236,0.0367 l -0.24573,0.54301 -0.21278,0.33049 -0.21373,0.19482 c -0.34723,0.20583 -0.71731,0.19438 -1.11022,-0.0344 -0.17366,-0.10141 -0.30862,-0.23332 -0.40489,-0.39573 -0.26892,-0.45362 -0.2273,-0.9324 0.12486,-1.43633 0.0798,-0.10788 0.17026,-0.21068 0.27128,-0.3084 0.101,-0.0977 0.21984,-0.19088 0.35654,-0.27948 0.91844,-0.54446 1.96756,-0.56849 3.14736,-0.0721 1.06713,0.47238 1.91609,1.2406 2.54689,2.30465 0.88309,1.48969 1.12467,2.88665 0.72475,4.19088 -0.25565,0.8327 -0.77787,1.50935 -1.56666,2.02994 -1.4617,0.8665 -3.63412,0.79581 -6.51726,-0.21208 l -0.44467,-0.15644 -0.36937,-0.14432 c -0.38213,-0.15946 -0.87836,-0.38373 -1.48869,-0.67279 -0.61034,-0.28908 -1.35479,-0.65758 -2.23337,-1.1055 l 2.31566,3.90622 c 0.51126,0.86244 0.99644,1.38086 1.45554,1.55525 0.26076,0.0952 0.59329,0.13266 0.99759,0.11248 l 0.63507,-0.0586 0.4994,-0.0576 0.22042,0.75483"/>
        <path id="path4077-6" style="fill:#babb42;fill-opacity:1" d="m 439.178,560.85958 c 0.58044,1.65231 0.33674,3.20771 -0.73108,4.66621 -0.9372,1.26078 -2.33943,2.21916 -4.20672,2.87515 -2.156,0.75738 -4.05937,0.77048 -5.71012,0.0393 -1.32306,-0.58409 -2.22087,-1.54873 -2.69343,-2.89391 -0.56966,-1.6216 -0.32256,-3.1575 0.7413,-4.6077 0.93286,-1.27307 2.32373,-2.23436 4.1726,-2.88386 l 0.50401,-0.15635 c 1.68284,-0.47387 3.26698,-0.49214 4.75241,-0.0548 l 0.60261,0.21269 c 1.10109,0.48264 1.90901,1.29944 2.42376,2.45041 0.0256,0.0531 0.048,0.10732 0.0675,0.16261 0.0277,0.0593 0.0534,0.12268 0.0772,0.19025 m -0.87704,0.3909 c -0.33016,-0.93979 -0.99433,-1.52417 -1.99251,-1.75315 l -0.0249,-0.012 -0.57572,-0.0772 c -0.84283,-0.042 -1.852,0.071 -3.02751,0.339 -0.25434,0.0617 -0.50037,0.12747 -0.73809,0.19718 -0.23159,0.0676 -0.45795,0.14017 -0.67907,0.21785 -1.32677,0.46609 -2.40718,1.01469 -3.24123,1.64582 -0.92155,0.69636 -1.39206,1.52754 -1.41153,2.49354 -0.0113,0.32139 0.0391,0.64179 0.15135,0.9612 0.28914,0.82308 0.886,1.38281 1.79057,1.67918 0.15123,0.0573 0.3032,0.097 0.45594,0.1193 0.15488,0.0284 0.31159,0.0423 0.47013,0.0419 1.14362,0.0537 2.53545,-0.20756 4.17549,-0.78368 2.19283,-0.77035 3.61698,-1.64672 4.27244,-2.62912 0.54968,-0.77274 0.67456,-1.58601 0.37464,-2.43981"/>
        <path id="path4079-3" style="fill:#babb42;fill-opacity:1" d="m 442.95037,577.63137 -10.6764,1.8753 c -0.92337,0.16217 -1.47946,0.40197 -1.66828,0.71938 -0.16578,0.26046 -0.20764,0.73713 -0.1256,1.43001 l 0.0617,0.63364 -0.58672,0.10305 -1.17924,-6.71362 0.58673,-0.10306 0.16128,0.63598 c 0.15899,0.67935 0.43825,1.1591 0.8378,1.43927 0.20354,0.14271 0.74455,0.13692 1.62303,-0.0174 l 7.5408,-1.32453 c 0.82717,-0.1453 1.32685,-0.34874 1.49905,-0.61033 0.13595,-0.24202 0.15931,-0.69231 0.0701,-1.35086 l -0.10006,-0.79546 0.58672,-0.10306 0.56146,1.78526 c 0.0406,0.11845 0.11626,0.32329 0.22692,0.61454 0.11705,0.2901 0.27401,0.67566 0.47088,1.15668 l -0.46074,-1.09897 0.46074,1.09897 0.10982,0.62519"/>
        <path id="path4081-9" style="fill:#babb42;fill-opacity:1" d="m 444.19998,589.14831 c 0.0785,1.74954 -0.60412,3.16826 -2.0477,4.25617 -1.26141,0.93634 -2.8807,1.44886 -4.85787,1.53754 -2.28287,0.10236 -4.1089,-0.43486 -5.4781,-1.61167 -1.09796,-0.94135 -1.67888,-2.12419 -1.74275,-3.54853 -0.077,-1.71703 0.60319,-3.1161 2.04057,-4.1972 1.26081,-0.94936 2.87006,-1.46794 4.82773,-1.55574 l 0.52769,-0.004 c 1.74799,0.0324 3.26988,0.47247 4.56568,1.32022 l 0.51549,0.37768 c 0.91476,0.78011 1.45232,1.79545 1.61269,3.04604 0.009,0.0582 0.015,0.11663 0.0176,0.17517 0.009,0.0647 0.0157,0.13288 0.0189,0.20443 m -0.95257,0.12092 c -0.0446,-0.9951 -0.51171,-1.74641 -1.40121,-2.25394 l -0.0204,-0.0186 -0.52887,-0.24021 c -0.79477,-0.2837 -1.79356,-0.467 -2.99639,-0.54991 -0.26133,-0.0144 -0.51586,-0.0225 -0.76358,-0.0244 -0.24124,-0.002 -0.47892,0.002 -0.71305,0.0124 -1.40485,0.063 -2.59766,0.27615 -3.57846,0.63947 -1.08341,0.4005 -1.77394,1.06035 -2.0716,1.97956 -0.10365,0.30442 -0.1479,0.62574 -0.13273,0.96395 0.0391,0.87151 0.44883,1.57978 1.22924,2.1248 0.12824,0.0985 0.26225,0.18048 0.40205,0.2459 0.14007,0.0719 0.28608,0.13054 0.438,0.17587 1.07938,0.3817 2.48734,0.53362 4.22388,0.45576 2.32188,-0.10414 3.93845,-0.53181 4.84973,-1.28302 0.74945,-0.58104 1.10391,-1.32358 1.06338,-2.22761"/>
      </g>
      <g id="text4065" style="font-size:20px;font-style:normal;font-variant:normal;font-weight:bold;font-stretch:normal;fill:#d3d34b;fill-opacity:1;stroke:none;font-family:KacstFarsi">
        <path id="path4075" style="fill:#d3d34b;fill-opacity:1" d="m 426.68418,556.49372 -3.71039,1.07566 -4.955,-8.35847 1.20126,-0.71213 c 1.38167,0.74759 2.53273,1.29131 3.4532,1.63116 0.67421,0.24362 1.38493,0.4467 2.13216,0.60921 l 0.40483,0.0892 c 2.33666,0.46905 4.15069,0.32458 5.44209,-0.4334 0.92964,-0.55111 1.37914,-1.30574 1.34851,-2.2639 5.5e-4,-0.31821 -0.0836,-0.65808 -0.25252,-1.01962 l -0.20045,-0.41474 c -0.4814,-0.81205 -1.11563,-1.33293 -1.90268,-1.56265 -0.42922,-0.12397 -0.7995,-0.0975 -1.11082,0.0795 l -0.2741,0.2079 c -0.0135,0.0156 -0.027,0.0311 -0.0404,0.0467 -0.008,0.0122 -0.0158,0.0245 -0.0236,0.0367 l -0.24573,0.54301 -0.21278,0.33049 -0.21373,0.19482 c -0.34723,0.20583 -0.71731,0.19438 -1.11022,-0.0344 -0.17366,-0.10141 -0.30862,-0.23332 -0.40489,-0.39573 -0.26892,-0.45362 -0.2273,-0.9324 0.12486,-1.43633 0.0798,-0.10788 0.17026,-0.21068 0.27128,-0.3084 0.101,-0.0977 0.21984,-0.19088 0.35654,-0.27948 0.91844,-0.54446 1.96756,-0.56849 3.14736,-0.0721 1.06713,0.47238 1.91609,1.2406 2.54689,2.30465 0.88309,1.48969 1.12467,2.88665 0.72475,4.19088 -0.25565,0.8327 -0.77787,1.50935 -1.56666,2.02994 -1.4617,0.8665 -3.63412,0.79581 -6.51726,-0.21208 l -0.44467,-0.15644 -0.36937,-0.14432 c -0.38213,-0.15946 -0.87836,-0.38373 -1.48869,-0.67279 -0.61034,-0.28908 -1.35479,-0.65758 -2.23337,-1.1055 l 2.31566,3.90622 c 0.51126,0.86244 0.99644,1.38086 1.45554,1.55525 0.26076,0.0952 0.59329,0.13266 0.99759,0.11248 l 0.63507,-0.0586 0.4994,-0.0576 0.22042,0.75483"/>
        <path id="path4077" style="fill:#d3d34b;fill-opacity:1" d="m 439.178,560.85958 c 0.58044,1.65231 0.33674,3.20771 -0.73108,4.66621 -0.9372,1.26078 -2.33943,2.21916 -4.20672,2.87515 -2.156,0.75738 -4.05937,0.77048 -5.71012,0.0393 -1.32306,-0.58409 -2.22087,-1.54873 -2.69343,-2.89391 -0.56966,-1.6216 -0.32256,-3.1575 0.7413,-4.6077 0.93286,-1.27307 2.32373,-2.23436 4.1726,-2.88386 l 0.50401,-0.15635 c 1.68284,-0.47387 3.26698,-0.49214 4.75241,-0.0548 l 0.60261,0.21269 c 1.10109,0.48264 1.90901,1.29944 2.42376,2.45041 0.0256,0.0531 0.048,0.10732 0.0675,0.16261 0.0277,0.0593 0.0534,0.12268 0.0772,0.19025 m -0.87704,0.3909 c -0.33016,-0.93979 -0.99433,-1.52417 -1.99251,-1.75315 l -0.0249,-0.012 -0.57572,-0.0772 c -0.84283,-0.042 -1.852,0.071 -3.02751,0.339 -0.25434,0.0617 -0.50037,0.12747 -0.73809,0.19718 -0.23159,0.0676 -0.45795,0.14017 -0.67907,0.21785 -1.32677,0.46609 -2.40718,1.01469 -3.24123,1.64582 -0.92155,0.69636 -1.39206,1.52754 -1.41153,2.49354 -0.0113,0.32139 0.0391,0.64179 0.15135,0.9612 0.28914,0.82308 0.886,1.38281 1.79057,1.67918 0.15123,0.0573 0.3032,0.097 0.45594,0.1193 0.15488,0.0284 0.31159,0.0423 0.47013,0.0419 1.14362,0.0537 2.53545,-0.20756 4.17549,-0.78368 2.19283,-0.77035 3.61698,-1.64672 4.27244,-2.62912 0.54968,-0.77274 0.67456,-1.58601 0.37464,-2.43981"/>
        <path id="path4079" style="fill:#d3d34b;fill-opacity:1" d="m 442.95037,577.63137 -10.6764,1.8753 c -0.92337,0.16217 -1.47946,0.40197 -1.66828,0.71938 -0.16578,0.26046 -0.20764,0.73713 -0.1256,1.43001 l 0.0617,0.63364 -0.58672,0.10305 -1.17924,-6.71362 0.58673,-0.10306 0.16128,0.63598 c 0.15899,0.67935 0.43825,1.1591 0.8378,1.43927 0.20354,0.14271 0.74455,0.13692 1.62303,-0.0174 l 7.5408,-1.32453 c 0.82717,-0.1453 1.32685,-0.34874 1.49905,-0.61033 0.13595,-0.24202 0.15931,-0.69231 0.0701,-1.35086 l -0.10006,-0.79546 0.58672,-0.10306 0.56146,1.78526 c 0.0406,0.11845 0.11626,0.32329 0.22692,0.61454 0.11705,0.2901 0.27401,0.67566 0.47088,1.15668 l -0.46074,-1.09897 0.46074,1.09897 0.10982,0.62519"/>
        <path id="path4081" style="fill:#d3d34b;fill-opacity:1" d="m 444.19998,589.14831 c 0.0785,1.74954 -0.60412,3.16826 -2.0477,4.25617 -1.26141,0.93634 -2.8807,1.44886 -4.85787,1.53754 -2.28287,0.10236 -4.1089,-0.43486 -5.4781,-1.61167 -1.09796,-0.94135 -1.67888,-2.12419 -1.74275,-3.54853 -0.077,-1.71703 0.60319,-3.1161 2.04057,-4.1972 1.26081,-0.94936 2.87006,-1.46794 4.82773,-1.55574 l 0.52769,-0.004 c 1.74799,0.0324 3.26988,0.47247 4.56568,1.32022 l 0.51549,0.37768 c 0.91476,0.78011 1.45232,1.79545 1.61269,3.04604 0.009,0.0582 0.015,0.11663 0.0176,0.17517 0.009,0.0647 0.0157,0.13288 0.0189,0.20443 m -0.95257,0.12092 c -0.0446,-0.9951 -0.51171,-1.74641 -1.40121,-2.25394 l -0.0204,-0.0186 -0.52887,-0.24021 c -0.79477,-0.2837 -1.79356,-0.467 -2.99639,-0.54991 -0.26133,-0.0144 -0.51586,-0.0225 -0.76358,-0.0244 -0.24124,-0.002 -0.47892,0.002 -0.71305,0.0124 -1.40485,0.063 -2.59766,0.27615 -3.57846,0.63947 -1.08341,0.4005 -1.77394,1.06035 -2.0716,1.97956 -0.10365,0.30442 -0.1479,0.62574 -0.13273,0.96395 0.0391,0.87151 0.44883,1.57978 1.22924,2.1248 0.12824,0.0985 0.26225,0.18048 0.40205,0.2459 0.14007,0.0719 0.28608,0.13054 0.438,0.17587 1.07938,0.3817 2.48734,0.53362 4.22388,0.45576 2.32188,-0.10414 3.93845,-0.53181 4.84973,-1.28302 0.74945,-0.58104 1.10391,-1.32358 1.06338,-2.22761"/>
      </g>
    </g>
  </g>
</svg>